<svg width="16" height="18" viewBox="0 0 16 18" fill="none" xmlns="http://www.w3.org/2000/svg">
<path d="M3.58184 17.3722H0.264581V6.10894H3.58184V17.3722ZM1.92121 4.57254C0.860602 4.57254 0 3.64588 0 2.52762C0 1.99039 0.202413 1.47516 0.56271 1.09528C0.923007 0.715398 1.41167 0.501984 1.92121 0.501984C2.43075 0.501984 2.91942 0.715398 3.27971 1.09528C3.64001 1.47516 3.84242 1.99039 3.84242 2.52762C3.84242 3.64588 2.98182 4.57254 1.92121 4.57254ZM15.9971 17.3722H12.6873V11.8894C12.6873 10.5826 12.6622 8.90699 10.9627 8.90699C9.23804 8.90699 8.97346 10.3265 8.97346 11.7954V17.3722H5.65963V6.10894H8.84089V7.64534H8.88717C9.33005 6.76025 10.4118 5.82636 12.0256 5.82636C15.3828 5.82636 16 8.15747 16 11.1851V17.3722H15.9971Z" fill="black"/>
</svg>
