<svg width="17" height="19" viewBox="0 0 17 19" fill="none" xmlns="http://www.w3.org/2000/svg">
<path d="M11.3687 9.46431C11.3687 7.78387 10.0938 6.43952 8.5 6.43952C6.90625 6.43952 5.63125 7.78387 5.63125 9.46431C5.63125 11.1447 6.90625 12.4891 8.5 12.4891C10.0938 12.4891 11.3687 11.1447 11.3687 9.46431ZM12.8563 9.46431C12.8563 12.041 10.9437 14.0575 8.5 14.0575C6.05625 14.0575 4.14375 12.041 4.14375 9.46431C4.14375 6.88764 6.05625 4.87112 8.5 4.87112C10.9437 4.87112 12.8563 6.88764 12.8563 9.46431ZM14.025 4.64706C14.025 5.31923 13.6 5.76735 12.9625 5.76735C12.325 5.76735 11.9 5.31923 11.9 4.64706C11.9 3.97488 12.325 3.52677 12.9625 3.52677C13.6 3.52677 14.025 4.08691 14.025 4.64706ZM8.5 2.07039C7.225 2.07039 4.56875 1.95836 3.50625 2.40648C2.7625 2.74256 2.125 3.41474 1.9125 4.19894C1.4875 5.31923 1.59375 8.11996 1.59375 9.46431C1.59375 10.8087 1.4875 13.6094 1.9125 14.7297C2.125 15.5139 2.7625 16.1861 3.50625 16.4101C4.56875 16.8582 7.33125 16.7462 8.5 16.7462C9.66875 16.7462 12.4312 16.8582 13.4937 16.4101C14.2375 16.074 14.7688 15.5139 15.0875 14.7297C15.5125 13.4974 15.4062 10.6966 15.4062 9.46431C15.4062 8.23199 15.5125 5.31923 15.0875 4.19894C14.875 3.41474 14.2375 2.74256 13.4937 2.51851C12.4312 1.95836 9.775 2.07039 8.5 2.07039ZM17 9.46431V13.1613C17 14.5056 16.575 15.85 15.6188 16.9703C14.6625 17.9785 13.3875 18.4266 12.0063 18.4266H4.99375C3.71875 18.4266 2.44375 17.9785 1.38125 16.9703C0.53125 15.962 0 14.6176 0 13.1613V9.46431V5.76735C0 4.31097 0.53125 2.96662 1.38125 1.95836C2.44375 1.06213 3.71875 0.501984 4.99375 0.501984H12.0063C13.2813 0.501984 14.5563 0.9501 15.6188 1.95836C16.4688 2.96662 17 4.31097 17 5.76735V9.46431Z" fill="black"/>
</svg>
